# xmcd
#
# Track frame offsets:
# 150
# 20822
# 38687
# 47915
# 57580
# 70628
# 86400
# 99583
# 113074
# 127830
# 143974
# 159471
# 169137
# 186936
# 203577
# 217214
# 229342
#
# Disc length: 3329 seconds
#
#
# Revision: 1
# Processed by: cddbd v1.5.1PL0 Copyright (c) Steve Scherf et al.
# Submitted via: FreeRIP 2.91 
#
DISCID=f30cff11
DTITLE=var. - Country jewels cd.2
DYEAR=1900
DGENRE=Country
TTITLE0=How do I live
TTITLE1=Lucille
TTITLE2=Don't be cruel
TTITLE3=Hello Mary Lou
TTITLE4=Twistin' the night away
TTITLE5=Calypso
TTITLE6=One dance with you
TTITLE7=Rose Garden
TTITLE8=Thanks to you
TTITLE9=To all the Girls
TTITLE10=What they're talking about
TTITLE11=Don't it make my brown eyes blue
TTITLE12=To make you feel my love
TTITLE13=Always on my mind
TTITLE14=Walk on
TTITLE15=King of the road
TTITLE16=From this moment
EXTD=
EXTT0=
EXTT1=
EXTT2=
EXTT3=
EXTT4=
EXTT5=
EXTT6=
EXTT7=
EXTT8=
EXTT9=
EXTT10=
EXTT11=
EXTT12=
EXTT13=
EXTT14=
EXTT15=
EXTT16=
PLAYORDER=
